<?xml version="1.0" encoding="UTF-8"?>
<svg id="Layer_1" data-name="Layer 1" xmlns="http://www.w3.org/2000/svg" viewBox="0 0 800 800">
  <defs>
    <style>
      .cls-1 {
        fill: #bad6f1;
      }

      .cls-1, .cls-2 {
        stroke-width: 0px;
      }

      .cls-2 {
        fill: #fff;
      }
    </style>
  </defs>
  <rect class="cls-1" width="800" height="800"/>
  <path class="cls-2" d="M743.9,336.8c-26.1,0-47.9,18-54.1,42.1h-213.9c-1.6-9.3-4.6-18.1-8.9-26.1l146.5-146.5c5.5,2.6,11.6,4.2,18,4.2,23.2,0,42.1-18.9,42.1-42.1s-18.9-42.1-42.1-42.1-42.1,18.9-42.1,42.1c0,6.5,1.6,12.6,4.2,18l-144.1,144.3c-11.7-10.6-26.3-17.9-42.4-20.7V110.3c24.1-6.3,42.1-28.1,42.1-54.1C449.2,25.2,424,.1,393.1.1s-56.1,25.2-56.1,56.1c0,26.1,18,47.9,42.1,54.1v199.7c-12.8,2.2-24.5,7.2-34.7,14.4l-138-138c2.6-5.5,4.2-11.6,4.2-18,0-23.2-18.9-42.1-42.1-42.1s-42.1,18.9-42.1,42.1,18.9,42.1,42.1,42.1c6.5,0,12.6-1.6,18-4.2l138,138c-7.2,10.1-12.2,21.9-14.4,34.7H110.3c-6.3-24.1-28.1-42.1-54.1-42.1-31-.1-56.2,25.1-56.2,56.1s25.2,56.1,56.1,56.1c26.1,0,47.9-18,54.1-42.1h199.8c2.7,16.2,10.1,30.8,20.7,42.4l-144.2,144.3c-5.5-2.6-11.6-4.2-18-4.2-23.2,0-42.1,18.9-42.1,42.1s18.9,42.1,42.1,42.1,42.1-18.9,42.1-42.1c0-6.5-1.6-12.6-4.2-18l146.4-146.6c8,4.4,16.8,7.4,26.1,8.9v213.8c-24.1,6.3-42.1,28.1-42.1,54.1,0,31,25.2,56.1,56.1,56.1s56.1-25.2,56.1-56.1c0-26.1-18-47.9-42.1-54.1v-213.8c12.8-2.2,24.5-7.2,34.7-14.4l152,152c-2.6,5.5-4.2,11.6-4.2,18,0,23.2,18.9,42.1,42.1,42.1s42.1-18.9,42.1-42.1-18.9-42.1-42.1-42.1c-6.5,0-12.6,1.6-18,4.2l-152-152c7.2-10.1,12.2-21.9,14.4-34.7h213.8c6.3,24.1,28.1,42.1,54.1,42.1,31,0,56.1-25.2,56.1-56.1s-25.1-56.1-56-56.1ZM631.6,154.4c7.7,0,14,6.3,14,14s-6.3,14-14,14-14-6.3-14-14,6.2-14,14-14ZM168.4,182.5c-7.7,0-14-6.3-14-14s6.3-14,14-14,14,6.3,14,14-6.2,14-14,14ZM56.1,421.1c-15.5,0-28.1-12.6-28.1-28.1s12.6-28.1,28.1-28.1,28.1,12.6,28.1,28.1-12.6,28.1-28.1,28.1ZM168.4,645.6c-7.7,0-14-6.3-14-14s6.3-14,14-14,14,6.3,14,14-6.2,14-14,14ZM364.9,56.1c0-15.5,12.6-28.1,28.1-28.1s28.1,12.6,28.1,28.1-12.6,28.1-28.1,28.1-28.1-12.6-28.1-28.1ZM421.1,743.9c0,15.5-12.6,28.1-28.1,28.1s-28.1-12.6-28.1-28.1,12.6-28.1,28.1-28.1,28.1,12.6,28.1,28.1ZM393,449.1c-31,0-56.1-25.2-56.1-56.1,0-12.9,4.6-24.7,11.9-34.2l10-10c9.5-7.4,21.3-11.9,34.2-11.9,31,0,56.1,25.2,56.1,56.1s-25.2,56.1-56.1,56.1ZM631.6,617.5c7.7,0,14,6.3,14,14s-6.3,14-14,14-14-6.3-14-14,6.2-14,14-14ZM743.9,421.1c-15.5,0-28.1-12.6-28.1-28.1s12.6-28.1,28.1-28.1,28.1,12.6,28.1,28.1-12.7,28.1-28.1,28.1Z"/>
</svg>